<?xml version="1.0" encoding="UTF-8"?>
<svg width="32" height="32" viewBox="0 0 32 32" fill="none" xmlns="http://www.w3.org/2000/svg">
  <!-- Background circle with gradient -->
  <defs>
    <linearGradient id="bgGradient" x1="0%" y1="0%" x2="100%" y2="100%">
      <stop offset="0%" style="stop-color:#667eea;stop-opacity:1" />
      <stop offset="100%" style="stop-color:#764ba2;stop-opacity:1" />
    </linearGradient>
    <linearGradient id="billGradient" x1="0%" y1="0%" x2="100%" y2="0%">
      <stop offset="0%" style="stop-color:#10b981;stop-opacity:1" />
      <stop offset="100%" style="stop-color:#34d399;stop-opacity:1" />
    </linearGradient>
    <linearGradient id="billGradient2" x1="0%" y1="0%" x2="100%" y2="0%">
      <stop offset="0%" style="stop-color:#3b82f6;stop-opacity:1" />
      <stop offset="100%" style="stop-color:#60a5fa;stop-opacity:1" />
    </linearGradient>
    <linearGradient id="billGradient3" x1="0%" y1="0%" x2="100%" y2="0%">
      <stop offset="0%" style="stop-color:#f59e0b;stop-opacity:1" />
      <stop offset="100%" style="stop-color:#fbbf24;stop-opacity:1" />
    </linearGradient>
  </defs>
  
  <!-- Background -->
  <circle cx="16" cy="16" r="16" fill="url(#bgGradient)"/>
  
  <!-- Stack of bills -->
  <!-- Bottom bill -->
  <rect x="6" y="18" width="18" height="8" rx="2" fill="url(#billGradient)" opacity="0.9"/>
  <rect x="8" y="20" width="4" height="2" rx="1" fill="white" opacity="0.6"/>
  <circle cx="18" cy="22" r="1.5" fill="white" opacity="0.6"/>
  
  <!-- Middle bill -->
  <rect x="7" y="15" width="18" height="8" rx="2" fill="url(#billGradient2)" opacity="0.95"/>
  <rect x="9" y="17" width="4" height="2" rx="1" fill="white" opacity="0.7"/>
  <circle cx="19" cy="19" r="1.5" fill="white" opacity="0.7"/>
  
  <!-- Top bill -->
  <rect x="8" y="12" width="18" height="8" rx="2" fill="url(#billGradient3)"/>
  <rect x="10" y="14" width="4" height="2" rx="1" fill="white" opacity="0.8"/>
  <circle cx="20" cy="16" r="1.5" fill="white" opacity="0.8"/>
  
  <!-- Calculator elements -->
  <!-- Calculator icon overlay -->
  <rect x="4" y="6" width="12" height="12" rx="2" fill="white" opacity="0.15"/>
  <rect x="5" y="7" width="10" height="3" rx="1" fill="white" opacity="0.3"/>
  
  <!-- Calculator buttons -->
  <circle cx="7" cy="12" r="1" fill="white" opacity="0.4"/>
  <circle cx="10" cy="12" r="1" fill="white" opacity="0.4"/>
  <circle cx="13" cy="12" r="1" fill="white" opacity="0.4"/>
  <circle cx="7" cy="15" r="1" fill="white" opacity="0.4"/>
  <circle cx="10" cy="15" r="1" fill="white" opacity="0.4"/>
  <circle cx="13" cy="15" r="1" fill="white" opacity="0.4"/>
  
  <!-- Dollar symbol on top bill -->
  <text x="23" y="18" font-family="Arial, sans-serif" font-size="6" font-weight="bold" fill="white" opacity="0.9">$</text>
</svg> 